<svg width="470" height="613" viewBox="0 0 470 613" fill="none" xmlns="http://www.w3.org/2000/svg">
<path d="M189.777 610.03L180.458 200.4L6.77792 200.4L9.31958 610.03H189.777Z" fill="#F1F6FF"/>
<path d="M251.624 607.913V336.803L461.311 342.922V607.913H251.624Z" fill="#FEFCED"/>
<path d="M6.77824 200.4L9.31989 610.03H108.021L103.361 200.4H6.77824Z" fill="#7398F7"/>
<path d="M131.742 158.887H59.7283V200.401H131.742V158.887Z" fill="#1F1D42"/>
<path d="M59.7283 158.887V200.401H108.443C85.0602 195.318 77.8024 170.607 77.0963 158.887H59.7283Z" fill="#1F1717"/>
<path d="M101.243 88.1434L92.7709 87.2961C90.6528 86.4489 90.2292 76.7059 98.2778 78.824C104.717 80.5184 102.938 85.7429 101.243 88.1434Z" fill="#0E173D"/>
<path d="M101.244 88.1443L92.7715 87.2971V99.5816L101.244 100.429V88.1443Z" fill="#0E173D"/>
<path d="M92.7705 99.5806L101.243 100.428L132.59 122.879H59.3053L92.7705 99.5806Z" fill="#1F1D42"/>
<path d="M272.382 402.039H265.604V450.33H262.639V455.414H275.347V448.636H272.382V402.039Z" fill="#1B2A63"/>
<path d="M461.311 611.302H251.624V472.358L461.311 475.417V611.302Z" fill="#A3BDFF"/>
<path d="M396.922 241.49L170.291 234.289L251.624 336.803L469.359 343.157L396.922 241.49Z" fill="#063183"/>
<path d="M251.624 336.803L469.359 343.157L264.756 237.291L170.291 234.289L251.624 336.803Z" fill="#7087FB"/>
<path d="M170.291 234.289L251.624 336.803V604.947L101.666 612.149V475.323V336.803L141.909 283.851H133.014L170.291 234.289Z" fill="#CFDEF3"/>
<path d="M199.521 296.559H155.042V349.934H199.521V296.559Z" fill="#0C183F"/>
<rect x="160.125" y="302.065" width="15.2499" height="18.6388" fill="#1F326B"/>
<rect x="181.305" y="302.065" width="15.2499" height="18.6388" fill="#1F326B"/>
<rect x="181.305" y="327.483" width="15.2499" height="18.6388" fill="#1F326B"/>
<path d="M59.3068 122.878H132.591H137.675V124.996H53.3763V122.878H59.3068Z" stroke="black"/>
<path d="M99.549 377.044H252.472H461.735" stroke="black" stroke-width="4"/>
<path d="M100.397 485.489H249.931H460.042" stroke="black" stroke-width="5"/>
<path d="M100.397 485.489H249.931" stroke="#5267FA" stroke-width="6"/>
<rect x="160.125" y="327.483" width="15.2499" height="18.6388" fill="#1F326B"/>
<path d="M62.2706 288.934H39.8192V349.933H63.965L62.2706 288.934Z" fill="#0E173D"/>
<path d="M62.2706 394.413H39.8192V455.413H63.965L62.2706 394.413Z" fill="#0C193F"/>
<path d="M63.5424 266.059H40.6675V219.462C46.0897 204.212 55.0703 213.108 58.8827 219.462L63.5424 266.059Z" fill="#1F1D42"/>
<path d="M300.764 246.15H276.619L255.438 239.796V200.4V198.282L276.619 197.71L302.459 197.011L302.342 200.4L300.764 246.15Z" fill="#1F326B"/>
<path d="M300.764 246.15H276.619V200.4V197.71L302.459 197.011L302.342 200.4L300.764 246.15Z" fill="#FEFDE8"/>
<path d="M255.438 198.282L276.619 197.71L302.459 197.011L302.342 200.4H276.619H255.438V198.282Z" fill="#112F7F"/>
<rect x="129.627" y="124.998" width="1.69444" height="33.8888" fill="#0C1942"/>
<rect x="189.777" y="165.665" width="1.69444" height="189.777" transform="rotate(90 189.777 165.665)" fill="#0C1942"/>
<rect x="189.777" y="198.705" width="1.69444" height="189.777" transform="rotate(90 189.777 198.705)" fill="#0C1942"/>
<path d="M6.74609 230.899H104.6H181.246" stroke="#18265D" stroke-width="4"/>
<rect x="189.777" y="185.151" width="1.69444" height="189.777" transform="rotate(90 189.777 185.151)" fill="#081334"/>
<rect x="59.3054" y="124.998" width="1.69444" height="33.8888" fill="#132355"/>
<rect x="77.0972" y="130.927" width="1.69444" height="27.9582" fill="#132355"/>
<rect x="80.4859" y="130.927" width="1.69444" height="27.9582" fill="#132355"/>
<rect x="85.569" y="130.927" width="1.69444" height="27.9582" fill="#132355"/>
<path d="M170.291 234.289L176.004 243.185M251.624 336.803L245.465 329.178M176.004 243.185L402.053 248.692M176.004 243.185L186.27 255.893M186.27 255.893L410.806 260.976M186.27 255.893L197.561 269.872M197.561 269.872L419.559 273.261M197.561 269.872L206.721 281.213M206.721 281.213L428.312 285.546M206.721 281.213L217.749 294.865M217.749 294.865L437.165 297.972M217.749 294.865L226.988 306.303M226.988 306.303L446.484 311.052M226.988 306.303L239.306 321.553M239.306 321.553H453.966M239.306 321.553L245.465 329.178M245.465 329.178L461.663 332.355" stroke="#A3BDFF" stroke-width="4"/>
<rect x="32.1958" y="167.359" width="1.69444" height="31.3471" fill="#121B3A"/>
<rect x="0.00088501" y="167.359" width="1.69444" height="31.3471" fill="#121B3A"/>
<rect x="188.083" y="167.359" width="1.69444" height="31.3471" fill="#121B3A"/>
<path d="M326.181 510.059H312.625V578.683H326.181V510.059Z" fill="#0C183F"/>
<path d="M312.625 578.683H326.181V544.371H312.625V578.683Z" fill="#17275F"/>
<path d="M438.436 547.337H415.985V579.531H438.436V547.337Z" fill="#17275F"/>
<path d="M97.4317 78.8236L95.7373 0.0322571" stroke="black" stroke-width="3"/>
<rect x="159.279" y="167.359" width="1.69444" height="31.3471" fill="#121B3A"/>
<rect x="99.972" y="167.359" width="1.69444" height="31.3471" fill="#121B3A"/>
<rect x="26.2644" y="167.359" width="1.69444" height="31.3471" fill="#121B3A"/>
<rect x="153.347" y="167.359" width="1.69444" height="31.3471" fill="#121B3A"/>
<rect x="153.347" y="167.359" width="1.69444" height="31.3471" fill="#121B3A"/>
<rect x="94.0429" y="167.359" width="1.69444" height="31.3471" fill="#121B3A"/>
<rect x="107.598" y="130.927" width="1.69444" height="27.9582" fill="#121B3A"/>
<rect x="110.986" y="130.927" width="1.69444" height="27.9582" fill="#121B3A"/>
<rect x="101.666" y="130.927" width="1.69444" height="27.9582" fill="#121B3A"/>
<path d="M415.985 579.531H438.436V563.434H415.985V579.531Z" fill="#0F1C49"/>
<path d="M452.415 555.385H443.943V573.177L452.415 572.753V555.385Z" fill="#FAF2E2"/>
<path d="M149.11 510.482V547.759H153.347V603.676H160.548V545.218H155.888V516.836H197.402V545.218H190.624V603.676H194.86V547.759H202.909V510.482H149.11Z" fill="#0D0808"/>
<path d="M190.626 545.218V603.676H160.55V545.218H155.89V516.836H197.404V545.218H190.626Z" fill="#17275F"/>
</svg>
